# xmcd
#
# Track frame offsets: 
#        225
#        14709
#        31665
#        48024
#        62289
#        74760
#        102418
#        125803
#        141705
#        170672
#        192237
#        206311
#        230072
#
# Disc length: 3288 seconds
#
# Revision: 2
# Processed by: cddbd v1.4PL0 Copyright (c) Steve Scherf et al.
# Submitted via: ExactAudioCopy v0.90b4
#
DISCID=c40cd50d
DTITLE=Choirs - Beroemde Operakoren - Vol. 3
DYEAR=1900
DGENRE=Opera
TTITLE0=Carl Maria von Weber: Bridal Chorus "Wir winden dir den Jungfe
TTITLE0=rnkranz" (Der Freischütz)
TTITLE1=Ludwig van Beethoven: Chorus of the Prisoners "O welche Lust, 
TTITLE1=im freier Luft" (Fidelio)
TTITLE2=Otto Nicolai: Moon's Chorus "O süsser Mond" (Die lustigen Weib
TTITLE2=er von Windsor)
TTITLE3=Wolfgang Amadeus Mozart: Priest's Chorus "O Isis und Osiris" (
TTITLE3=Die Zauberflöte)
TTITLE4=Friedrich von Flotow: Peasant's Chorus "Mädchen brav und true"
TTITLE4=(Martha)
TTITLE5=Richard Wagner: Spinner's Chorus "Summ und brumm" (Der Fliegen
TTITLE5=de Holländer)
TTITLE6=Giuseppe Verdi: Procession Chorus (I Lombardi)
TTITLE7=Giuseppe Verdi: Chorus of the Witches (Macbeth)
TTITLE8=Giuseppe Verdi: Chorus of the Scottish Fugitives "Patria opres
TTITLE8=sa" (Macbeth)
TTITLE9=Ruggiero Leoncavallo: Bell's Chorus (I Pagliacci)
TTITLE10=Giacomo Puccini: Humming Chorus (Madama Butterfly)
TTITLE11=Richard Wagner: Pilgrim's Chorus (Tannhäuser)
TTITLE12=Gioacchino Rossini: Chorus Prayer (Moses)
EXTD=
EXTT0=
EXTT1=
EXTT2=
EXTT3=
EXTT4=
EXTT5=
EXTT6=
EXTT7=
EXTT8=
EXTT9=
EXTT10=
EXTT11=
EXTT12=
PLAYORDER=
